<?xml version="1.0" encoding="utf-8"?>
<!-- Generator: Adobe Illustrator 21.1.0, SVG Export Plug-In . SVG Version: 6.00 Build 0)  -->
<svg version="1.1" id="Layer_1" xmlns="http://www.w3.org/2000/svg" xmlns:xlink="http://www.w3.org/1999/xlink" x="0px" y="0px"
	 viewBox="0 0 500 500" style="enable-background:new 0 0 500 500;" xml:space="preserve">
<style type="text/css">
	.st0{fill:#666666;stroke:#666666;stroke-miterlimit:10;}
	.st1{fill:#999999;stroke:#999999;stroke-miterlimit:10;}
	.st2{fill:#00FFFF;stroke:#00FFFF;stroke-miterlimit:10;}
	.st3{fill:#FFFF00;stroke:#FCEE21;stroke-miterlimit:10;}
	.st4{fill:#CCCC33;stroke:#FCEE21;stroke-miterlimit:10;}
	.st5{fill:#00FF00;stroke:#00FF00;stroke-miterlimit:10;}
	.st6{fill:#FF0000;stroke:#999999;stroke-miterlimit:10;}
	.st7{fill:#66FFFF;stroke:#00FFFF;stroke-miterlimit:10;}
</style>
<path class="st0" d="M470.6,478.3h-435c-6.6,0-12-5.4-12-12v-435c0-6.6,5.4-12,12-12h435c6.6,0,12,5.4,12,12v435
	C482.6,472.9,477.2,478.3,470.6,478.3z"/>
<path class="st1" d="M397.1,213.3H47.1c-6.6,0-12-5.4-12-12V50.1c0-6.6,5.4-12,12-12h349.9c6.6,0,12,5.4,12,12v151.2
	C409.1,207.9,403.7,213.3,397.1,213.3z"/>
<rect x="40.3" y="44.5" class="st2" width="362.4" height="135"/>
<path class="st1" d="M446.7,155.2l35.9,15.8v295.3c0,0-0.5,12-12,12s-21.8,0-21.8,0h-28.2L446.7,155.2z"/>
<rect x="420.6" y="19.3" class="st1" width="28.2" height="459"/>
<g>
	<rect x="40.3" y="334.7" class="st3" width="352.1" height="87.2"/>
	<rect x="40.3" y="373" class="st4" width="352.1" height="10.7"/>
</g>
<g>
	<circle class="st5" cx="302.4" cy="317" r="3.8"/>
	<circle class="st5" cx="381.6" cy="317" r="3.8"/>
	<circle class="st5" cx="362.8" cy="317" r="3.8"/>
	<circle class="st5" cx="343.4" cy="317" r="3.8"/>
	<circle class="st5" cx="323.2" cy="317" r="3.8"/>
</g>
<polygon class="st5" points="466.9,35.6 475.2,35.6 471,40.1 466.9,44.5 462.7,40.1 458.5,35.6 "/>
<polygon class="st5" points="466.9,56.1 475.2,56.1 471,60.6 466.9,65.1 462.7,60.6 458.5,56.1 "/>
<polygon class="st5" points="466.9,76.6 475.2,76.6 471,81.1 466.9,85.6 462.7,81.1 458.5,76.6 "/>
<path class="st0" d="M463.2,446.3h-21.7c-6.6,0-12-5.4-12-12v-46.5c0-6.6,5.4-12,12-12h21.7c6.6,0,12,5.4,12,12v46.5
	C475.2,440.9,469.8,446.3,463.2,446.3z"/>
<rect x="439.8" y="371.5" class="st1" width="9" height="80.3"/>
<g>
	<rect x="47.5" y="290" class="st1" width="76.1" height="33.3"/>
	<circle class="st0" cx="85.6" cy="306.7" r="10.4"/>
	<circle class="st0" cx="60" cy="306.7" r="3.8"/>
	<circle class="st0" cx="112.3" cy="306.7" r="3.8"/>
</g>
<path class="st6" d="M95.7,206.1H50.4c-4.7,0-8.5-3.8-8.5-8.5v0c0-4.7,3.8-8.5,8.5-8.5h45.3c4.7,0,8.5,3.8,8.5,8.5v0
	C104.3,202.2,100.4,206.1,95.7,206.1z"/>
<polygon class="st7" points="56.2,179.5 110.4,44.5 123.6,44.5 68.5,179.5 "/>
<polygon class="st7" points="227.1,179.5 281.3,44.5 294.5,44.5 239.4,179.5 "/>
<polygon class="st7" points="163.4,179.5 217.6,44.5 230.8,44.5 175.7,179.5 "/>
<polygon class="st7" points="104.3,179.5 158.5,44.5 171.7,44.5 116.6,179.5 "/>
</svg>
